<mxfile host="app.diagrams.net" modified="2023-06-04T03:19:24.079Z" agent="Mozilla/5.0 (Windows NT 10.0; Win64; x64; rv:109.0) Gecko/20100101 Firefox/113.0" etag="PgYBLZBRl08ZLytXTQQ_" version="21.3.7" type="device">
  <diagram id="C5RBs43oDa-KdzZeNtuy" name="Page-1">
    <mxGraphModel dx="1434" dy="754" grid="1" gridSize="10" guides="1" tooltips="1" connect="1" arrows="1" fold="1" page="1" pageScale="1" pageWidth="827" pageHeight="1169" math="0" shadow="0">
      <root>
        <mxCell id="WIyWlLk6GJQsqaUBKTNV-0" />
        <mxCell id="WIyWlLk6GJQsqaUBKTNV-1" parent="WIyWlLk6GJQsqaUBKTNV-0" />
        <mxCell id="dKmGcgnCZqFfXebVTbLb-64" style="edgeStyle=none;rounded=0;orthogonalLoop=1;jettySize=auto;html=1;exitX=0;exitY=0.5;exitDx=0;exitDy=0;entryX=1;entryY=0.5;entryDx=0;entryDy=0;dashed=1;" edge="1" parent="WIyWlLk6GJQsqaUBKTNV-1" source="dKmGcgnCZqFfXebVTbLb-23" target="dKmGcgnCZqFfXebVTbLb-35">
          <mxGeometry relative="1" as="geometry" />
        </mxCell>
        <mxCell id="dKmGcgnCZqFfXebVTbLb-65" style="edgeStyle=none;rounded=0;orthogonalLoop=1;jettySize=auto;html=1;exitX=0.5;exitY=1;exitDx=0;exitDy=0;entryX=0.5;entryY=0;entryDx=0;entryDy=0;dashed=1;" edge="1" parent="WIyWlLk6GJQsqaUBKTNV-1" source="dKmGcgnCZqFfXebVTbLb-23" target="dKmGcgnCZqFfXebVTbLb-26">
          <mxGeometry relative="1" as="geometry" />
        </mxCell>
        <mxCell id="dKmGcgnCZqFfXebVTbLb-66" style="rounded=0;orthogonalLoop=1;jettySize=auto;html=1;exitX=0.5;exitY=0;exitDx=0;exitDy=0;entryX=0.5;entryY=0;entryDx=0;entryDy=0;edgeStyle=orthogonalEdgeStyle;dashed=1;" edge="1" parent="WIyWlLk6GJQsqaUBKTNV-1" source="dKmGcgnCZqFfXebVTbLb-23" target="dKmGcgnCZqFfXebVTbLb-34">
          <mxGeometry relative="1" as="geometry" />
        </mxCell>
        <mxCell id="dKmGcgnCZqFfXebVTbLb-23" value="&lt;div&gt;Añadir Favorito&lt;/div&gt;" style="ellipse;whiteSpace=wrap;html=1;" vertex="1" parent="WIyWlLk6GJQsqaUBKTNV-1">
          <mxGeometry x="640" y="180" width="120" height="50" as="geometry" />
        </mxCell>
        <mxCell id="dKmGcgnCZqFfXebVTbLb-26" value="&lt;div&gt;Eliminar Favorito&lt;/div&gt;" style="ellipse;whiteSpace=wrap;html=1;" vertex="1" parent="WIyWlLk6GJQsqaUBKTNV-1">
          <mxGeometry x="620" y="270" width="120" height="50" as="geometry" />
        </mxCell>
        <mxCell id="dKmGcgnCZqFfXebVTbLb-27" value="Cambiar contraseña" style="ellipse;whiteSpace=wrap;html=1;" vertex="1" parent="WIyWlLk6GJQsqaUBKTNV-1">
          <mxGeometry x="510" y="370" width="120" height="50" as="geometry" />
        </mxCell>
        <mxCell id="dKmGcgnCZqFfXebVTbLb-29" value="Cambiar Avatar" style="ellipse;whiteSpace=wrap;html=1;" vertex="1" parent="WIyWlLk6GJQsqaUBKTNV-1">
          <mxGeometry x="380" y="500" width="120" height="50" as="geometry" />
        </mxCell>
        <mxCell id="dKmGcgnCZqFfXebVTbLb-30" value="Cambiar cumpleaños" style="ellipse;whiteSpace=wrap;html=1;" vertex="1" parent="WIyWlLk6GJQsqaUBKTNV-1">
          <mxGeometry x="520" y="450" width="120" height="50" as="geometry" />
        </mxCell>
        <mxCell id="dKmGcgnCZqFfXebVTbLb-60" style="edgeStyle=none;rounded=0;orthogonalLoop=1;jettySize=auto;html=1;exitX=0.5;exitY=1;exitDx=0;exitDy=0;entryX=0.5;entryY=0;entryDx=0;entryDy=0;dashed=1;" edge="1" parent="WIyWlLk6GJQsqaUBKTNV-1" source="dKmGcgnCZqFfXebVTbLb-31" target="dKmGcgnCZqFfXebVTbLb-51">
          <mxGeometry relative="1" as="geometry" />
        </mxCell>
        <mxCell id="dKmGcgnCZqFfXebVTbLb-31" value="Cambiar IdiomaPreferido" style="ellipse;whiteSpace=wrap;html=1;" vertex="1" parent="WIyWlLk6GJQsqaUBKTNV-1">
          <mxGeometry x="215" y="510" width="120" height="50" as="geometry" />
        </mxCell>
        <mxCell id="dKmGcgnCZqFfXebVTbLb-32" value="Usuario" style="shape=umlActor;verticalLabelPosition=bottom;verticalAlign=top;html=1;outlineConnect=0;" vertex="1" parent="WIyWlLk6GJQsqaUBKTNV-1">
          <mxGeometry x="70" y="240" width="30" height="60" as="geometry" />
        </mxCell>
        <mxCell id="dKmGcgnCZqFfXebVTbLb-33" style="edgeStyle=none;rounded=0;orthogonalLoop=1;jettySize=auto;html=1;exitX=1;exitY=0.5;exitDx=0;exitDy=0;entryX=0;entryY=0;entryDx=0;entryDy=0;dashed=1;" edge="1" parent="WIyWlLk6GJQsqaUBKTNV-1" source="dKmGcgnCZqFfXebVTbLb-34" target="dKmGcgnCZqFfXebVTbLb-35">
          <mxGeometry relative="1" as="geometry" />
        </mxCell>
        <mxCell id="dKmGcgnCZqFfXebVTbLb-34" value="Buscar Juego" style="ellipse;whiteSpace=wrap;html=1;" vertex="1" parent="WIyWlLk6GJQsqaUBKTNV-1">
          <mxGeometry x="210" y="100" width="120" height="50" as="geometry" />
        </mxCell>
        <mxCell id="dKmGcgnCZqFfXebVTbLb-35" value="Ver Ficha Juego" style="ellipse;whiteSpace=wrap;html=1;" vertex="1" parent="WIyWlLk6GJQsqaUBKTNV-1">
          <mxGeometry x="414" y="120" width="120" height="50" as="geometry" />
        </mxCell>
        <mxCell id="dKmGcgnCZqFfXebVTbLb-36" value="&lt;div&gt;Leer Noticia&lt;/div&gt;" style="ellipse;whiteSpace=wrap;html=1;" vertex="1" parent="WIyWlLk6GJQsqaUBKTNV-1">
          <mxGeometry x="414" y="230" width="120" height="50" as="geometry" />
        </mxCell>
        <mxCell id="dKmGcgnCZqFfXebVTbLb-37" style="edgeStyle=none;rounded=0;orthogonalLoop=1;jettySize=auto;html=1;exitX=1;exitY=0.5;exitDx=0;exitDy=0;entryX=0;entryY=0;entryDx=0;entryDy=0;dashed=1;" edge="1" parent="WIyWlLk6GJQsqaUBKTNV-1" source="dKmGcgnCZqFfXebVTbLb-38" target="dKmGcgnCZqFfXebVTbLb-36">
          <mxGeometry relative="1" as="geometry" />
        </mxCell>
        <mxCell id="dKmGcgnCZqFfXebVTbLb-38" value="&lt;div&gt;Buscar Noticia&lt;/div&gt;" style="ellipse;whiteSpace=wrap;html=1;" vertex="1" parent="WIyWlLk6GJQsqaUBKTNV-1">
          <mxGeometry x="210" y="220" width="120" height="50" as="geometry" />
        </mxCell>
        <mxCell id="dKmGcgnCZqFfXebVTbLb-39" value="Desloguearse" style="ellipse;whiteSpace=wrap;html=1;" vertex="1" parent="WIyWlLk6GJQsqaUBKTNV-1">
          <mxGeometry x="210" y="340" width="120" height="50" as="geometry" />
        </mxCell>
        <mxCell id="dKmGcgnCZqFfXebVTbLb-57" style="rounded=0;orthogonalLoop=1;jettySize=auto;html=1;exitX=1;exitY=0;exitDx=0;exitDy=0;entryX=0;entryY=0.5;entryDx=0;entryDy=0;dashed=1;" edge="1" parent="WIyWlLk6GJQsqaUBKTNV-1" source="dKmGcgnCZqFfXebVTbLb-40" target="dKmGcgnCZqFfXebVTbLb-26">
          <mxGeometry relative="1" as="geometry" />
        </mxCell>
        <mxCell id="dKmGcgnCZqFfXebVTbLb-59" style="edgeStyle=none;rounded=0;orthogonalLoop=1;jettySize=auto;html=1;exitX=0.5;exitY=1;exitDx=0;exitDy=0;entryX=0.5;entryY=0;entryDx=0;entryDy=0;dashed=1;" edge="1" parent="WIyWlLk6GJQsqaUBKTNV-1" source="dKmGcgnCZqFfXebVTbLb-40" target="dKmGcgnCZqFfXebVTbLb-31">
          <mxGeometry relative="1" as="geometry" />
        </mxCell>
        <mxCell id="dKmGcgnCZqFfXebVTbLb-61" style="edgeStyle=none;rounded=0;orthogonalLoop=1;jettySize=auto;html=1;exitX=1;exitY=1;exitDx=0;exitDy=0;entryX=0.5;entryY=0;entryDx=0;entryDy=0;dashed=1;" edge="1" parent="WIyWlLk6GJQsqaUBKTNV-1" source="dKmGcgnCZqFfXebVTbLb-40" target="dKmGcgnCZqFfXebVTbLb-29">
          <mxGeometry relative="1" as="geometry" />
        </mxCell>
        <mxCell id="dKmGcgnCZqFfXebVTbLb-62" style="edgeStyle=none;rounded=0;orthogonalLoop=1;jettySize=auto;html=1;exitX=1;exitY=0.5;exitDx=0;exitDy=0;entryX=0;entryY=0.5;entryDx=0;entryDy=0;dashed=1;" edge="1" parent="WIyWlLk6GJQsqaUBKTNV-1" source="dKmGcgnCZqFfXebVTbLb-40" target="dKmGcgnCZqFfXebVTbLb-30">
          <mxGeometry relative="1" as="geometry" />
        </mxCell>
        <mxCell id="dKmGcgnCZqFfXebVTbLb-63" style="edgeStyle=none;rounded=0;orthogonalLoop=1;jettySize=auto;html=1;exitX=1;exitY=0.5;exitDx=0;exitDy=0;entryX=0;entryY=0.5;entryDx=0;entryDy=0;dashed=1;" edge="1" parent="WIyWlLk6GJQsqaUBKTNV-1" source="dKmGcgnCZqFfXebVTbLb-40" target="dKmGcgnCZqFfXebVTbLb-27">
          <mxGeometry relative="1" as="geometry" />
        </mxCell>
        <mxCell id="dKmGcgnCZqFfXebVTbLb-40" value="&lt;div&gt;Ir al panel de usuario&lt;/div&gt;" style="ellipse;whiteSpace=wrap;html=1;" vertex="1" parent="WIyWlLk6GJQsqaUBKTNV-1">
          <mxGeometry x="210" y="400" width="130" height="50" as="geometry" />
        </mxCell>
        <mxCell id="dKmGcgnCZqFfXebVTbLb-41" style="edgeStyle=none;rounded=0;orthogonalLoop=1;jettySize=auto;html=1;exitX=1;exitY=0.5;exitDx=0;exitDy=0;entryX=0;entryY=1;entryDx=0;entryDy=0;dashed=1;" edge="1" parent="WIyWlLk6GJQsqaUBKTNV-1" source="dKmGcgnCZqFfXebVTbLb-42" target="dKmGcgnCZqFfXebVTbLb-35">
          <mxGeometry relative="1" as="geometry" />
        </mxCell>
        <mxCell id="dKmGcgnCZqFfXebVTbLb-42" value="Filtrar Juego" style="ellipse;whiteSpace=wrap;html=1;" vertex="1" parent="WIyWlLk6GJQsqaUBKTNV-1">
          <mxGeometry x="210" y="160" width="120" height="50" as="geometry" />
        </mxCell>
        <mxCell id="dKmGcgnCZqFfXebVTbLb-43" style="edgeStyle=none;rounded=0;orthogonalLoop=1;jettySize=auto;html=1;exitX=1;exitY=0.5;exitDx=0;exitDy=0;entryX=0;entryY=1;entryDx=0;entryDy=0;dashed=1;" edge="1" parent="WIyWlLk6GJQsqaUBKTNV-1" source="dKmGcgnCZqFfXebVTbLb-44" target="dKmGcgnCZqFfXebVTbLb-36">
          <mxGeometry relative="1" as="geometry" />
        </mxCell>
        <mxCell id="dKmGcgnCZqFfXebVTbLb-44" value="Filtrar Noticia" style="ellipse;whiteSpace=wrap;html=1;" vertex="1" parent="WIyWlLk6GJQsqaUBKTNV-1">
          <mxGeometry x="210" y="280" width="120" height="50" as="geometry" />
        </mxCell>
        <mxCell id="dKmGcgnCZqFfXebVTbLb-45" value="" style="endArrow=none;html=1;rounded=0;entryX=0;entryY=0.5;entryDx=0;entryDy=0;" edge="1" parent="WIyWlLk6GJQsqaUBKTNV-1" target="dKmGcgnCZqFfXebVTbLb-34">
          <mxGeometry width="50" height="50" relative="1" as="geometry">
            <mxPoint x="110" y="270" as="sourcePoint" />
            <mxPoint x="350" y="250" as="targetPoint" />
            <Array as="points" />
          </mxGeometry>
        </mxCell>
        <mxCell id="dKmGcgnCZqFfXebVTbLb-46" value="" style="endArrow=none;html=1;rounded=0;entryX=0;entryY=0.5;entryDx=0;entryDy=0;" edge="1" parent="WIyWlLk6GJQsqaUBKTNV-1" target="dKmGcgnCZqFfXebVTbLb-44">
          <mxGeometry width="50" height="50" relative="1" as="geometry">
            <mxPoint x="110" y="270" as="sourcePoint" />
            <mxPoint x="200" y="165" as="targetPoint" />
          </mxGeometry>
        </mxCell>
        <mxCell id="dKmGcgnCZqFfXebVTbLb-47" value="" style="endArrow=none;html=1;rounded=0;entryX=0;entryY=0.5;entryDx=0;entryDy=0;" edge="1" parent="WIyWlLk6GJQsqaUBKTNV-1" target="dKmGcgnCZqFfXebVTbLb-39">
          <mxGeometry width="50" height="50" relative="1" as="geometry">
            <mxPoint x="110" y="270" as="sourcePoint" />
            <mxPoint x="210" y="175" as="targetPoint" />
          </mxGeometry>
        </mxCell>
        <mxCell id="dKmGcgnCZqFfXebVTbLb-48" value="" style="endArrow=none;html=1;rounded=0;entryX=0;entryY=0.5;entryDx=0;entryDy=0;" edge="1" parent="WIyWlLk6GJQsqaUBKTNV-1" target="dKmGcgnCZqFfXebVTbLb-40">
          <mxGeometry width="50" height="50" relative="1" as="geometry">
            <mxPoint x="110" y="270" as="sourcePoint" />
            <mxPoint x="220" y="185" as="targetPoint" />
          </mxGeometry>
        </mxCell>
        <mxCell id="dKmGcgnCZqFfXebVTbLb-49" value="" style="endArrow=none;html=1;rounded=0;entryX=0;entryY=0.5;entryDx=0;entryDy=0;" edge="1" parent="WIyWlLk6GJQsqaUBKTNV-1" target="dKmGcgnCZqFfXebVTbLb-42">
          <mxGeometry width="50" height="50" relative="1" as="geometry">
            <mxPoint x="110" y="270" as="sourcePoint" />
            <mxPoint x="200" y="165" as="targetPoint" />
            <Array as="points" />
          </mxGeometry>
        </mxCell>
        <mxCell id="dKmGcgnCZqFfXebVTbLb-50" value="" style="endArrow=none;html=1;rounded=0;entryX=0;entryY=0.5;entryDx=0;entryDy=0;" edge="1" parent="WIyWlLk6GJQsqaUBKTNV-1" target="dKmGcgnCZqFfXebVTbLb-38">
          <mxGeometry width="50" height="50" relative="1" as="geometry">
            <mxPoint x="110" y="270" as="sourcePoint" />
            <mxPoint x="630" y="395" as="targetPoint" />
          </mxGeometry>
        </mxCell>
        <mxCell id="dKmGcgnCZqFfXebVTbLb-51" value="Cambiar Idioma página" style="ellipse;whiteSpace=wrap;html=1;" vertex="1" parent="WIyWlLk6GJQsqaUBKTNV-1">
          <mxGeometry x="215" y="610" width="120" height="50" as="geometry" />
        </mxCell>
        <mxCell id="dKmGcgnCZqFfXebVTbLb-53" value="&amp;lt;&amp;lt;include&amp;gt;&amp;gt;" style="text;html=1;strokeColor=none;fillColor=none;align=center;verticalAlign=middle;whiteSpace=wrap;rounded=0;" vertex="1" parent="WIyWlLk6GJQsqaUBKTNV-1">
          <mxGeometry x="350" y="90" width="60" height="30" as="geometry" />
        </mxCell>
        <mxCell id="dKmGcgnCZqFfXebVTbLb-54" value="&amp;lt;&amp;lt;include&amp;gt;&amp;gt;" style="text;html=1;strokeColor=none;fillColor=none;align=center;verticalAlign=middle;whiteSpace=wrap;rounded=0;" vertex="1" parent="WIyWlLk6GJQsqaUBKTNV-1">
          <mxGeometry x="350" y="210" width="60" height="30" as="geometry" />
        </mxCell>
        <mxCell id="dKmGcgnCZqFfXebVTbLb-55" value="&amp;lt;&amp;lt;include&amp;gt;&amp;gt;" style="text;html=1;strokeColor=none;fillColor=none;align=center;verticalAlign=middle;whiteSpace=wrap;rounded=0;rotation=-15;" vertex="1" parent="WIyWlLk6GJQsqaUBKTNV-1">
          <mxGeometry x="340" y="140" width="60" height="30" as="geometry" />
        </mxCell>
        <mxCell id="dKmGcgnCZqFfXebVTbLb-56" value="&amp;lt;&amp;lt;include&amp;gt;&amp;gt;" style="text;html=1;strokeColor=none;fillColor=none;align=center;verticalAlign=middle;whiteSpace=wrap;rounded=0;rotation=-15;" vertex="1" parent="WIyWlLk6GJQsqaUBKTNV-1">
          <mxGeometry x="340" y="255" width="60" height="30" as="geometry" />
        </mxCell>
        <mxCell id="dKmGcgnCZqFfXebVTbLb-67" value="&amp;lt;&amp;lt;include&amp;gt;&amp;gt;" style="text;html=1;strokeColor=none;fillColor=none;align=center;verticalAlign=middle;whiteSpace=wrap;rounded=0;rotation=0;" vertex="1" parent="WIyWlLk6GJQsqaUBKTNV-1">
          <mxGeometry x="200" y="570" width="60" height="30" as="geometry" />
        </mxCell>
        <mxCell id="dKmGcgnCZqFfXebVTbLb-68" value="&amp;lt;&amp;lt;extend&amp;gt;&amp;gt;" style="text;html=1;strokeColor=none;fillColor=none;align=center;verticalAlign=middle;whiteSpace=wrap;rounded=0;rotation=0;" vertex="1" parent="WIyWlLk6GJQsqaUBKTNV-1">
          <mxGeometry x="210" y="460" width="60" height="30" as="geometry" />
        </mxCell>
        <mxCell id="dKmGcgnCZqFfXebVTbLb-70" value="&amp;lt;&amp;lt;extend&amp;gt;&amp;gt;" style="text;html=1;strokeColor=none;fillColor=none;align=center;verticalAlign=middle;whiteSpace=wrap;rounded=0;rotation=30;" vertex="1" parent="WIyWlLk6GJQsqaUBKTNV-1">
          <mxGeometry x="570" y="150" width="60" height="30" as="geometry" />
        </mxCell>
        <mxCell id="dKmGcgnCZqFfXebVTbLb-72" value="&amp;lt;&amp;lt;extend&amp;gt;&amp;gt;" style="text;html=1;strokeColor=none;fillColor=none;align=center;verticalAlign=middle;whiteSpace=wrap;rounded=0;rotation=0;" vertex="1" parent="WIyWlLk6GJQsqaUBKTNV-1">
          <mxGeometry x="500" y="60" width="60" height="30" as="geometry" />
        </mxCell>
        <mxCell id="dKmGcgnCZqFfXebVTbLb-73" value="&amp;lt;&amp;lt;extend&amp;gt;&amp;gt;" style="text;html=1;strokeColor=none;fillColor=none;align=center;verticalAlign=middle;whiteSpace=wrap;rounded=0;rotation=-5;" vertex="1" parent="WIyWlLk6GJQsqaUBKTNV-1">
          <mxGeometry x="414" y="370" width="60" height="30" as="geometry" />
        </mxCell>
        <mxCell id="dKmGcgnCZqFfXebVTbLb-74" value="&amp;lt;&amp;lt;extend&amp;gt;&amp;gt;" style="text;html=1;strokeColor=none;fillColor=none;align=center;verticalAlign=middle;whiteSpace=wrap;rounded=0;rotation=-20;" vertex="1" parent="WIyWlLk6GJQsqaUBKTNV-1">
          <mxGeometry x="410" y="330" width="60" height="30" as="geometry" />
        </mxCell>
        <mxCell id="dKmGcgnCZqFfXebVTbLb-75" value="&amp;lt;&amp;lt;extend&amp;gt;&amp;gt;" style="text;html=1;strokeColor=none;fillColor=none;align=center;verticalAlign=middle;whiteSpace=wrap;rounded=0;rotation=15;" vertex="1" parent="WIyWlLk6GJQsqaUBKTNV-1">
          <mxGeometry x="444" y="430" width="60" height="30" as="geometry" />
        </mxCell>
        <mxCell id="dKmGcgnCZqFfXebVTbLb-76" value="&amp;lt;&amp;lt;extend&amp;gt;&amp;gt;" style="text;html=1;strokeColor=none;fillColor=none;align=center;verticalAlign=middle;whiteSpace=wrap;rounded=0;rotation=30;" vertex="1" parent="WIyWlLk6GJQsqaUBKTNV-1">
          <mxGeometry x="330" y="470" width="60" height="30" as="geometry" />
        </mxCell>
        <mxCell id="dKmGcgnCZqFfXebVTbLb-77" value="&amp;lt;&amp;lt;include&amp;gt;&amp;gt;" style="text;html=1;strokeColor=none;fillColor=none;align=center;verticalAlign=middle;whiteSpace=wrap;rounded=0;rotation=0;" vertex="1" parent="WIyWlLk6GJQsqaUBKTNV-1">
          <mxGeometry x="700" y="230" width="60" height="30" as="geometry" />
        </mxCell>
      </root>
    </mxGraphModel>
  </diagram>
</mxfile>
